<svg width="102" height="102" viewBox="0 0 102 102" fill="none" xmlns="http://www.w3.org/2000/svg">
<path d="M5.58758 100.269C0.0879043 97.647 0.622595 53.2866 1.5774 31.4342C1.98929 17.5735 25.0462 12.8596 36.5231 12.2352V38.533C38.9959 20.4024 63.1292 4.84272 81.208 1.46504C97.2487 -1.53187 97.0577 9.26948 94.9571 15.0448C27.5862 49.1346 70.7051 68.8954 100.686 74.5146C102.023 79.3534 99.3111 89.4992 77.7707 91.3722C56.2303 93.2453 42.252 76.856 36.5231 68.4272L33.6587 94.1818C26.5932 97.3036 11.0872 102.892 5.58758 100.269Z" fill="#B1AAF7"/>
<path d="M1.5774 31.4342C0.622595 53.2866 0.0879043 97.647 5.58758 100.269C11.0872 102.892 26.5932 97.3036 33.6587 94.1818L36.5231 68.4272C42.252 76.856 56.2303 93.2453 77.7707 91.3722C99.3111 89.4992 102.023 79.3534 100.686 74.5146C70.7051 68.8954 27.5862 49.1346 94.9571 15.0448C97.0577 9.26948 97.2487 -1.53187 81.208 1.46504C61.1571 5.21117 33.6587 23.9419 36.5231 44.5456V12.2352C25.0462 12.8596 1.98929 17.5735 1.5774 31.4342Z" stroke="#7367F0"/>
</svg>
